# generated from PmQm by Jehee Lee
:FULLY-SPECIFIED
:DEGREES
273
root 165.5280401 18.21667902 -50.83293085 28.7706804 34.45523925 -10.52948349
RightUpLeg -51.52660852 6.424554335 2.178915085
RightLeg 130.1110811 0 0
RightFoot -22.73490749 9.330479336 -15.02751314
RightToes -4.65663e-010 -1.59028e-015 9.93923e-017
Spine 55.24467926 -8.306422905 17.01489312
Spine1 -16.78334423 1.263410852 -3.824997529
HEad -56.30455844 -1.497535087 7.107863717
LeftShoulder1 9.93923e-017 0 1.22299e-017
LeftArm -3.723124168 -26.77123654 -96.06235612
LeftForeArm 31.93562826 -0.6916666748 0.1273273702
LeftHand -4.01312625 -0.7703550577 48.8106798
RightShoulder 1.98785e-016 -4.96962e-017 1.55301e-017
RightArm -4.946745999 37.56892318 81.10172359
RightForeArm 15.83769206 6.170699341 -4.029958575
RightHand 4.532782277 -16.71720734 -30.67881487
LeftUpLeg 15.26982324 -11.1715026 7.783981625
LeftLeg 41.64253829 0 0
LeftFoot 26.78512801 -16.66935051 -6.241128831
LeftToes 3.34876e-009 -9.68256e-011 -6.12847e-011
274
root 165.5670813 18.44644738 -49.8507374 31.5546839 34.04388927 -7.362871429
RightUpLeg -50.10720317 6.989347739 0.4342087678
RightLeg 127.8274845 0 0
RightFoot -23.31601439 10.58845016 -16.58706807
RightToes -4.65663e-010 -1.59028e-015 9.93923e-017
Spine 54.90601707 -8.881381647 16.10923571
Spine1 -16.96311179 0.1950394977 -4.445385963
HEad -57.86129062 -1.828773119 7.312896234
LeftShoulder1 9.93923e-017 0 1.22299e-017
LeftArm -3.95757859 -26.64743264 -94.57694703
LeftForeArm 32.10178844 -0.8125507223 -0.2640760124
LeftHand -4.077085808 -0.7882688705 49.35948408
RightShoulder 1.98785e-016 -4.96962e-017 1.55301e-017
RightArm -3.927105882 38.66111101 84.62546335
RightForeArm 13.88563766 3.383880801 -3.363148948
RightHand 4.967046106 -17.34630098 -32.38904436
LeftUpLeg 14.98685421 -12.22059756 5.736945543
LeftLeg 38.45060028 0 0
LeftFoot 33.91641505 -17.34457121 -10.01820324
LeftToes 3.34876e-009 -9.68256e-011 -6.12847e-011
275
root 165.5785756 18.847 -48.73716252 34.46167276 34.05004801 -2.803014611
RightUpLeg -47.112769 7.016002016 -1.513715346
RightLeg 124.246136 0 0
RightFoot -24.55091247 11.0818077 -18.81426898
RightToes -4.65663e-010 -1.59028e-015 9.93923e-017
Spine 55.0423 -9.14457 14.2549
Spine1 -16.9222 -1.07261 -3.53413
HEad -59.3048 -2.3091 8.01257
LeftShoulder1 9.93923e-017 0 1.22299e-017
LeftArm -2.50939 -27.4574 -93.6164
LeftForeArm 31.1444 -1.12134 -1.41931
LeftHand -4.07682 -0.760345 49.5432
RightShoulder 1.98785e-016 -4.96962e-017 1.55301e-017
RightArm -4.19736 38.503 86.6417
RightForeArm 13.3405 1.10696 -3.03006
RightHand 5.92934 -18.4871 -36.3177
LeftUpLeg 10.64169119 -13.41843896 5.055242329
LeftLeg 41.99074798 -2.059856914 -1.089207445
LeftFoot 34.08327853 -14.98854419 -11.73639663
LeftToes 3.34876e-009 -9.68256e-011 -6.12847e-011
276
root 165.57577 19.3452 -47.45891346 36.95774766 33.61473581 2.453675207
RightUpLeg -42.73535308 6.742922333 -3.328557607
RightLeg 119.7430428 0 0
RightFoot -25.41714955 10.28872081 -20.34463017
RightToes -4.65663e-010 -1.59028e-015 9.93923e-017
Spine 55.7225 -8.90553 11.5216
Spine1 -16.5163 -2.2872 -2.95196
HEad -60.4028 -2.86315 9.53156
LeftShoulder1 9.93923e-017 0 1.22299e-017
LeftArm 0.735663 -28.6938 -93.0319
LeftForeArm 30.2375 -1.67212 -3.428
LeftHand -3.97051 -0.678766 48.9837
RightShoulder 1.98785e-016 -4.96962e-017 1.55301e-017
RightArm -5.98866 37.4514 86.6753
RightForeArm 13.1424 0.575081 -3.33398
RightHand 6.86286 -19.4431 -39.9211
LeftUpLeg 4.380490093 -13.88510891 5.074236316
LeftLeg 48.61408413 -3.459795056 -0.7420608763
LeftFoot 29.98941398 -13.49908663 -10.79614013
LeftToes 3.34876e-009 -9.68256e-011 -6.12847e-011
277
root 165.5295566 19.7854 -46.14406094 39.09004297 32.6561934 7.957564754
RightUpLeg -37.78999962 6.208959799 -5.250527757
RightLeg 115.1386728 0 0
RightFoot -25.9201721 8.613767887 -21.6226749
RightToes -4.65663e-010 -1.59028e-015 9.93923e-017
Spine 56.1555 -8.04282 7.96442
Spine1 -15.0818 -3.3735 -2.70368
HEad -61.3389 -3.31085 11.3553
LeftShoulder1 9.93923e-017 0 1.22299e-017
LeftArm 10.8206 -29.7476 -92.7345
LeftForeArm 24.1263 -3.89529 -5.3683
LeftHand -3.72473 -0.525115 47.3954
RightShoulder 1.98785e-016 -4.96962e-017 1.55301e-017
RightArm -7.61866 36.4823 85.9821
RightForeArm 12.5609 0.996144 -3.86774
RightHand 7.34311 -19.8992 -41.6619
LeftUpLeg -3.154833678 -13.95641308 4.936159428
LeftLeg 58.26774603 -4.936914044 -0.5294384631
LeftFoot 24.22027816 -11.78908344 -9.001478337
LeftToes 3.34876e-009 -9.68256e-011 -6.12847e-011
